<?xml version="1.0" standalone="no"?><!DOCTYPE svg PUBLIC "-//W3C//DTD SVG 1.1//EN" "http://www.w3.org/Graphics/SVG/1.1/DTD/svg11.dtd"><svg t="1784339180708" class="icon" viewBox="0 0 1024 1024" version="1.1" xmlns="http://www.w3.org/2000/svg" p-id="5355" xmlns:xlink="http://www.w3.org/1999/xlink" width="200" height="200"><path d="M139.445 1002.491L512.23 629.716l372.775 372.775c28.672 28.672 78.843 28.672 107.52 0 28.703-28.672 28.703-78.842 0-107.52L619.75 522.187l372.775-372.795c28.703-28.672 28.703-78.853 0-107.52-28.677-28.672-78.848-28.672-107.52 0L512.23 414.636 139.445 41.876c-28.677-28.672-78.848-28.672-107.54 0C17.963 55.813 10.95 74.828 10.55 93.972v3.318c0.4 19.148 7.413 38.164 21.355 52.106L404.69 522.19 31.905 894.971c-13.942 13.917-20.956 32.973-21.355 52.096v3.292c0.4 19.16 7.413 38.175 21.355 52.137 28.692 28.662 78.868 28.662 107.54-0.005z" fill="#7fea94" p-id="5356"></path></svg>