<?xml version="1.0" standalone="no"?><!DOCTYPE svg PUBLIC "-//W3C//DTD SVG 1.1//EN" "http://www.w3.org/Graphics/SVG/1.1/DTD/svg11.dtd"><svg t="1784340986286" class="icon" viewBox="0 0 1024 1024" version="1.1" xmlns="http://www.w3.org/2000/svg" p-id="10085" xmlns:xlink="http://www.w3.org/1999/xlink" width="200" height="200"><path d="M468.2752 271.2576c-26.624 1.024-58.368 26.3168-122.0608 76.6976l-53.1456 41.984c-67.072 53.0432-100.6592 79.5648-103.8336 114.688a82.5344 82.5344 0 0 0 0 14.7456c3.072 35.0208 36.864 61.5424 103.8336 114.688l53.1456 41.984c63.5904 50.3808 95.4368 75.4688 122.0608 76.5952a81.92 81.92 0 0 0 69.632-33.5872c10.1376-14.0288 13.7216-36.1472 14.9504-72.192a12.8 12.8 0 0 1 20.48-9.9328l46.7968 34.6112c72.4992 53.76 108.7488 80.6912 139.0592 78.5408a81.92 81.92 0 0 0 56.0128-28.16c19.968-23.04 19.8656-68.1984 19.8656-158.5152V460.4928c0-90.2144 0-135.3728-19.8656-158.4128a81.92 81.92 0 0 0-56.0128-28.2624c-30.3104-2.2528-66.56 24.6784-139.0592 78.5408l-46.6944 34.6112a12.9024 12.9024 0 0 1-20.48-10.0352c-1.3312-36.0448-4.9152-58.0608-15.1552-72.0896a82.0224 82.0224 0 0 0-69.5296-33.5872z" p-id="10086" fill="#7fea94"></path></svg>