<?xml version="1.0" standalone="no"?><!DOCTYPE svg PUBLIC "-//W3C//DTD SVG 1.1//EN" "http://www.w3.org/Graphics/SVG/1.1/DTD/svg11.dtd"><svg t="1784341198140" class="icon" viewBox="0 0 1024 1024" version="1.1" xmlns="http://www.w3.org/2000/svg" p-id="4046" xmlns:xlink="http://www.w3.org/1999/xlink" width="200" height="200"><path d="M374.485333 384H256a42.666667 42.666667 0 0 0-42.666667 42.666667v192a42.666667 42.666667 0 0 0 42.666667 42.666666h118.485333L533.333333 756.650667V288.682667L374.485333 384zM256 341.333333h106.666667l148.714666-89.237333c28.437333-17.066667 64.618667 3.413333 64.618667 36.586667v467.968c0 33.152-36.181333 53.632-64.618667 36.586666L362.666667 704h-106.666667a85.333333 85.333333 0 0 1-85.333333-85.333333v-192a85.333333 85.333333 0 0 1 85.333333-85.333334zM678.506667 534.442667c0.106667-35.413333-8.149333-72.106667-26.517334-121.706667a21.333333 21.333333 0 0 1 40.021334-14.805333c19.242667 51.946667 29.290667 94.058667 29.162666 136.64-0.128 42.602667-10.453333 83.904-29.184 134.208a21.333333 21.333333 0 0 1-39.978666-14.890667c17.92-48.085333 26.389333-84.010667 26.496-119.445333zM824.042667 535.381333c0.768-52.693333-18.325333-107.84-63.637334-183.04a21.333333 21.333333 0 0 1 36.522667-22.016c47.04 78.016 70.72 141.376 69.76 205.653334-0.917333 64.106667-26.304 125.717333-69.589333 200.085333a21.333333 21.333333 0 1 1-36.864-21.461333c42.218667-72.554667 63.018667-126.357333 63.786666-179.221334z" fill="#7fea94" p-id="4047"></path></svg>