<svg t="1784432706443" class="icon" viewBox="0 0 1024 1024" version="1.1" xmlns="http://www.w3.org/2000/svg" p-id="2936" xmlns:xlink="http://www.w3.org/1999/xlink" width="200" height="200"><path d="M193.4336 135.68c-31.8976 0-57.7536 25.856-57.7536 57.7536v637.1328c0 31.8976 25.856 57.7536 57.7536 57.7536h637.1328c31.8976 0 57.7536-25.856 57.7536-57.7536V193.4336c0-31.8976-25.856-57.7536-57.7536-57.7536H193.4336z m0-66.56h637.1328a124.3136 124.3136 0 0 1 124.3136 124.3136v637.1328a124.3136 124.3136 0 0 1-124.3136 124.3136H193.4336a124.3136 124.3136 0 0 1-124.3136-124.3136V193.4336A124.3136 124.3136 0 0 1 193.4336 69.12z" fill="currentColor" p-id="2937"></path><path d="M729.0368 294.9632v171.52a33.28 33.28 0 1 0 66.56 0V270.848a42.3936 42.3936 0 0 0-42.3936-42.3936H557.568a33.28 33.28 0 1 0 0 66.56h171.52z" fill="currentColor" p-id="2938"></path><path d="M721.92 265.5232l-178.176 178.2272a33.28 33.28 0 1 0 47.0528 47.104l178.176-178.2272a33.28 33.28 0 1 0-47.104-47.104z" fill="currentColor" p-id="2939"></path><path d="M437.4528 549.9904l-178.176 178.176a33.28 33.28 0 1 0 47.0528 47.104l178.176-178.176a33.28 33.28 0 0 0-47.0528-47.104z" fill="currentColor" p-id="2940"></path><path d="M294.9632 729.0368v-171.52a33.28 33.28 0 1 0-66.56 0v195.6864c0 23.3984 18.944 42.3936 42.3936 42.3936H466.432a33.28 33.28 0 1 0 0-66.56h-171.52z" fill="currentColor" p-id="2941"></path></svg>