<?xml version="1.0" encoding="UTF-8"?>
<svg version="1.1" xmlns="http://www.w3.org/2000/svg" width="1040" height="1046">
<path d="M0 0 C3.52551532 0.0042144 7.0510107 -0.00325632 10.57652097 -0.00915251 C16.74078937 -0.01787274 22.90502453 -0.01924159 29.06929755 -0.01564924 C38.23636024 -0.01032117 47.403391 -0.01645862 56.57045022 -0.02473217 C73.89902323 -0.03994279 91.22758158 -0.04168025 108.55615987 -0.03920914 C121.94134241 -0.03737381 135.32652016 -0.03914112 148.7117021 -0.04343358 C150.63730212 -0.04403599 152.56290215 -0.04463719 154.48850217 -0.04523719 C157.39049248 -0.04614448 160.2924828 -0.04705315 163.19447311 -0.04796954 C190.16321662 -0.05639472 217.13195835 -0.06073778 244.10070299 -0.05656282 C245.1165995 -0.05640644 246.132496 -0.05625007 247.17917724 -0.05608895 C252.32769702 -0.05528321 257.47621679 -0.05443744 262.62473656 -0.05357565 C263.64717881 -0.05340456 264.66962107 -0.05323347 265.72304641 -0.0530572 C267.79067128 -0.05271054 269.85829615 -0.05236201 271.92592102 -0.05201161 C304.09203052 -0.04665544 336.25811259 -0.05458366 368.42421698 -0.07304517 C404.59566872 -0.0937814 440.76710348 -0.10448478 476.93856149 -0.10046969 C480.79868185 -0.10007436 484.6588022 -0.09971281 488.51892256 -0.0993723 C489.46932258 -0.09928157 490.4197226 -0.09919084 491.39892262 -0.09909736 C505.71869331 -0.09793353 520.03844679 -0.10456336 534.35821318 -0.11518422 C550.65272177 -0.1272577 566.94719257 -0.1287705 583.24170174 -0.11639406 C592.3487356 -0.10978559 601.455679 -0.11134984 610.56270555 -0.12498257 C616.66067874 -0.13327028 622.75858466 -0.13047389 628.85655246 -0.1190073 C632.32114097 -0.11279334 635.78555391 -0.11103822 639.2501318 -0.12287064 C691.80200466 -0.26592179 737.08633807 14.8348356 774.94985174 52.26313647 C803.22872172 80.9908774 819.14647267 122.17721227 819.08127951 162.16597995 C819.08435846 163.93224912 819.08435846 163.93224912 819.08749961 165.7342005 C819.09217087 168.99482897 819.0923994 172.25542233 819.09072202 175.51605258 C819.08998829 179.06657679 819.09502003 182.61709371 819.09929704 186.16761478 C819.10686313 193.20629122 819.10906939 200.24496007 819.1096261 207.28364016 C819.11054113 215.71635533 819.11721285 224.14906353 819.12397292 232.58177569 C819.14002184 252.96312022 819.14593516 273.34446398 819.15072167 293.72581369 C819.15305895 303.37186956 819.15666177 313.01792485 819.16041705 322.66398026 C819.17325222 355.69748812 819.18397092 388.73099565 819.18741965 421.76450595 C819.18764128 423.83762809 819.18786306 425.91075024 819.188085 427.98387239 C819.18830564 430.06194442 819.18852612 432.14001644 819.18874645 434.21808847 C819.18918899 438.38691306 819.18963611 442.55573766 819.19008612 446.72456225 C819.19019551 447.75818601 819.1903049 448.79180976 819.19041761 449.85675545 C819.1940468 483.35859017 819.2099618 516.86040323 819.23327648 550.36222966 C819.2578932 585.79995672 819.27159336 621.2376714 819.27278756 656.67540725 C819.27295901 660.56849361 819.27317444 664.46157996 819.273422 668.35466632 C819.27347776 669.31322151 819.27353353 670.27177671 819.27359099 671.25937904 C819.2747399 686.66115212 819.28574835 702.06290291 819.30030905 717.46466847 C819.31470214 732.95753059 819.31789521 748.45036425 819.30986907 763.94323122 C819.3054259 773.13708616 819.30922065 782.330849 819.32510758 791.52469177 C819.33490613 797.6795405 819.33363316 803.83432518 819.32367135 809.98917342 C819.31831418 813.48721107 819.31745481 816.98507275 819.33018007 820.48309534 C819.39437064 842.22229087 818.01448204 862.60308417 810.94985174 883.26313647 C810.61147284 884.2736809 810.61147284 884.2736809 810.26625799 885.30464038 C796.17770652 926.8837764 764.59921035 959.42779736 725.83266424 978.94282397 C714.75469375 984.32077938 703.26979923 988.13837234 691.32485174 991.07563647 C690.53932928 991.27068774 689.75380682 991.46573901 688.94448065 991.66670092 C672.04269602 995.55037676 655.10343142 995.55777856 637.85856292 995.52627294 C634.32702598 995.52205867 630.79550895 995.52952918 627.26397704 995.53542545 C621.08916594 995.54414579 614.91438801 995.54551449 608.73957228 995.54192218 C599.55688625 995.5365942 590.37423209 995.54273145 581.19154952 995.55100511 C563.83377601 995.56621564 546.47601713 995.56795322 529.11823835 995.56548208 C515.7111174 995.56364681 502.30400122 995.56541393 488.89688086 995.56970652 C486.9681858 995.57030893 485.03949074 995.57091013 483.11079569 995.57151013 C480.20415528 995.57241742 477.29751488 995.57332608 474.39087447 995.57424248 C447.37926173 995.58266758 420.36765077 995.58701076 393.35603689 995.58283576 C392.33853231 995.58267938 391.32102773 995.58252301 390.27268968 995.58236189 C385.11600539 995.58155615 379.95932111 995.58071038 374.80263683 995.57984859 C373.26653724 995.57959196 373.26653724 995.57959196 371.69940535 995.57933014 C369.62849646 995.57898348 367.55758756 995.57863495 365.48667867 995.57828455 C333.26687267 995.57292795 301.04709405 995.58085786 268.82729315 995.59931811 C232.59688736 995.6200521 196.36649852 995.63075818 160.13608646 995.62674262 C156.2700862 995.6263473 152.40408595 995.62598575 148.53808569 995.62564524 C147.1103098 995.62550915 147.1103098 995.62550915 145.65368996 995.6253703 C131.30943821 995.62420626 116.96520363 995.63083785 102.62095618 995.64145716 C86.3000686 995.65352778 69.97921874 995.65504668 53.65833058 995.642667 C44.53553401 995.63605614 35.41282775 995.63762836 26.29003848 995.65125551 C20.18283468 995.65953842 14.07569808 995.65675295 7.96849967 995.64528024 C4.49781891 995.63906163 1.02731352 995.63732357 -2.44335667 995.64914358 C-21.36566519 995.70051973 -40.29870757 995.19635912 -58.55014826 989.63813647 C-59.40068781 989.38507739 -60.25122736 989.13201831 -61.12754083 988.87129077 C-82.45977092 982.27335081 -102.32555996 972.17389382 -119.05014826 957.26313647 C-119.90995294 956.51161303 -120.76975763 955.76008959 -121.65561701 954.98579272 C-124.15172609 952.77667954 -126.60643953 950.52994372 -129.05014826 948.26313647 C-129.69210138 947.68692553 -130.33405451 947.11071459 -130.99546076 946.51704272 C-148.94274487 929.65861057 -160.87192535 907.18354823 -169.05014826 884.26313647 C-169.47038263 883.09137866 -169.89061701 881.91962084 -170.32358576 880.71235522 C-175.49718238 865.0943173 -177.20837724 848.62834787 -177.18157602 832.25286254 C-177.18362865 831.07588428 -177.18568129 829.89890603 -177.18779612 828.68626177 C-177.19246213 825.43179448 -177.19269735 822.17736243 -177.19101853 818.92289338 C-177.19028404 815.37730969 -177.19531831 811.83173328 -177.19959355 808.28615274 C-177.20715518 801.25942568 -177.20936568 794.23270621 -177.20992261 787.2059755 C-177.21083807 778.78675665 -177.21751105 770.36754479 -177.22426943 761.94832896 C-177.24031342 741.60096731 -177.246231 721.25360643 -177.25101818 700.90623959 C-177.25335584 691.2758933 -177.25695869 681.6455476 -177.26071356 672.01520177 C-177.27354795 639.03373089 -177.28426699 606.05226035 -177.28771616 573.07078704 C-177.28793779 571.001203 -177.28815957 568.93161896 -177.28838151 566.86203493 C-177.28860215 564.78752154 -177.28882263 562.71300815 -177.28904296 560.63849475 C-177.2894855 556.47683561 -177.28993262 552.31517647 -177.29038263 548.15351733 C-177.29049202 547.1216713 -177.29060141 546.08982528 -177.29071412 545.02671119 C-177.29434357 511.58006131 -177.31025997 478.13343312 -177.33357299 444.68679155 C-177.35818971 409.30491397 -177.37188986 373.92304878 -177.37308407 338.54116239 C-177.37325552 334.65427029 -177.37347095 330.76737819 -177.37371851 326.88048609 C-177.37377428 325.92346055 -177.37383004 324.966435 -177.3738875 323.98040868 C-177.37503637 308.60379604 -177.38604441 293.22720572 -177.40060556 277.85060061 C-177.41499858 262.3836253 -177.41819174 246.91667849 -177.41016558 231.44969832 C-177.40572248 222.27139069 -177.4095169 213.09317532 -177.42540409 203.91487988 C-177.43520281 197.77043001 -177.43392951 191.62604429 -177.42396786 185.48159491 C-177.41861083 181.98951415 -177.41775083 178.49760966 -177.43047658 175.00554399 C-177.48701237 155.8919655 -176.94863539 136.87240701 -171.30014826 118.45063647 C-171.04555841 117.59155688 -170.79096857 116.73247729 -170.52866388 115.84736499 C-168.02207442 107.67136179 -164.74471767 99.9636627 -161.05014826 92.26313647 C-160.55643732 91.19708178 -160.06272638 90.13102709 -159.55405451 89.03266772 C-152.21099432 73.65005113 -141.58230065 60.68237751 -130.05014826 48.26313647 C-129.51132013 47.67016772 -128.97249201 47.07719897 -128.41733576 46.46626147 C-94.68243514 10.8666176 -47.15435897 -0.08629978 0 0 Z " fill="#555555" transform="translate(198.05014825519174,26.736863530240953)"/>
<path d="M0 0 C21.78 0 43.56 0 66 0 C66 9.24 66 18.48 66 28 C85.14 28 104.28 28 124 28 C124 39.55 124 51.1 124 63 C144.46 63 164.92 63 186 63 C186 75.54 186 88.08 186 101 C206.46 101 226.92 101 248 101 C248 114.2 248 127.4 248 141 C266.81 141 285.62 141 305 141 C305 154.86 305 168.72 305 183 C323.81 183 342.62 183 362 183 C362 194.22 362 205.44 362 217 C380.81 217 399.62 217 419 217 C419 227.89 419 238.78 419 250 C435.5 250 452 250 469 250 C469 291.58 469 333.16 469 376 C452.5 376 436 376 419 376 C419 385.24 419 394.48 419 404 C400.19 404 381.38 404 362 404 C362 417.86 362 431.72 362 446 C343.19 446 324.38 446 305 446 C305 457.88 305 469.76 305 482 C286.19 482 267.38 482 248 482 C248 498.17 248 514.34 248 531 C227.54 531 207.08 531 186 531 C186 544.86 186 558.72 186 573 C165.54 573 145.08 573 124 573 C124 584.88 124 596.76 124 609 C104.86 609 85.72 609 66 609 C66 619.89 66 630.78 66 642 C44.22 642 22.44 642 0 642 C0 430.14 0 218.28 0 0 Z " fill="#87F789" transform="translate(314,186)"/>
<path d="M0 0 C15.84 0 31.68 0 48 0 C48 15.84 48 31.68 48 48 C33.15 48 18.3 48 3 48 C3 57.57 3 67.14 3 77 C-8.88 77 -20.76 77 -33 77 C-33 65.12 -33 53.24 -33 41 C-22.11 41 -11.22 41 0 41 C0 27.47 0 13.94 0 0 Z " fill="#86F688" transform="translate(837,148)"/>
<path d="M0 0 C15.18 0 30.36 0 46 0 C46 15.18 46 30.36 46 46 C30.82 46 15.64 46 0 46 C0 30.82 0 15.64 0 0 Z " fill="#87F789" transform="translate(158,854)"/>
<path d="M0 0 C7.26 0 14.52 0 22 0 C22 7.26 22 14.52 22 22 C14.74 22 7.48 22 0 22 C0 14.74 0 7.48 0 0 Z " fill="#86F688" transform="translate(811,745)"/>
</svg>
