<?xml version="1.0" encoding="UTF-8"?>
<svg version="1.1" xmlns="http://www.w3.org/2000/svg" width="2023" height="2024">
<path d="M0 0 C0.69368494 -0.00297112 1.38736988 -0.00594224 2.10207558 -0.0090034 C4.40847631 -0.01762085 6.71482472 -0.01919273 9.02124023 -0.02069092 C10.68264373 -0.02532416 12.34404617 -0.0303495 14.00544739 -0.03573608 C18.50796217 -0.04881648 23.01046206 -0.05529693 27.51299286 -0.05974674 C30.33217058 -0.06268554 33.15134432 -0.06679193 35.97052002 -0.07125092 C44.80876902 -0.08491661 53.64700881 -0.09458686 62.48526764 -0.09845281 C72.65417717 -0.10292634 82.8229518 -0.12044536 92.99182034 -0.1494534 C100.87323749 -0.17114783 108.75461691 -0.18116127 116.63606358 -0.18249393 C121.33304099 -0.18353674 126.02989145 -0.18933176 130.72683716 -0.20731354 C135.15266673 -0.2239282 139.57827574 -0.22588556 144.0041256 -0.21717453 C145.61684451 -0.21641117 147.22957596 -0.2206528 148.84226418 -0.23063278 C162.62006793 -0.31080511 175.62913681 1.13565579 188.39233398 6.76544189 C189.19227783 7.11244141 189.99222168 7.45944092 190.81640625 7.81695557 C214.21686554 18.3364712 231.15643631 37.60331289 240.76733398 61.14044189 C243.75626933 69.43232703 245.891072 77.93722306 245.89389582 86.77876117 C245.89667114 87.88704104 245.89944645 88.99532091 245.90230587 90.13718502 C245.90026953 91.34765307 245.8982332 92.55812112 245.89613515 93.80527002 C245.89879767 95.75314042 245.89879767 95.75314042 245.90151397 97.74036174 C245.90631723 101.3605864 245.90487793 104.98078615 245.90245627 108.6010122 C245.90091615 112.54829476 245.90516915 116.49557176 245.90868303 120.44285247 C245.91406231 127.39293184 245.91569938 134.34300444 245.91493229 141.29308573 C245.91379818 151.69779605 245.91837375 162.10249847 245.92406313 172.50720702 C245.93358175 190.23810497 245.93828341 207.96900133 245.94037247 225.69990158 C245.9424997 243.67579834 245.94675652 261.65169267 245.95361519 279.62758827 C245.9540458 280.7617621 245.95447642 281.89593593 245.95492008 283.06447866 C245.9566784 287.68359706 245.95844804 292.30271545 245.9602331 296.92183384 C245.98184157 352.94602863 245.9927131 408.9702239 246.00170934 464.9944219 C246.00464261 483.15969782 246.0080124 501.32497361 246.01167655 519.4902494 C246.01206399 521.41207657 246.01206399 521.41207657 246.01245925 523.37272854 C246.01350545 528.55592419 246.01455388 533.73911983 246.01560507 538.92231548 C246.03258512 622.72050049 246.04791567 706.51868593 246.0563641 804.90233924 C246.05688856 811.1701232 246.05742588 817.43790716 246.05796257 823.70569111 C246.05814177 825.79886154 246.05832074 827.89203196 246.05849966 829.98520238 C246.05963673 843.28257358 246.0607828 856.57994478 246.06194786 869.87731597 C246.06225517 873.38560739 246.0625611 876.89389882 246.06286376 880.40219024 C246.06858325 946.65826593 246.07782482 1012.91433778 246.10028076 1079.17041016 C246.10051699 1079.86783589 246.10075322 1080.56526163 246.1009966 1081.28382148 C246.10862446 1103.77557902 246.11667329 1126.2673364 246.12478187 1148.75909376 C246.1325895 1170.41643645 246.14031294 1192.07377917 246.1476717 1213.73112202 C246.14802283 1214.76377979 246.14802283 1214.76377979 246.14838106 1215.81729933 C246.16301895 1258.93593174 246.17281985 1302.05456311 246.1775465 1345.17319775 C246.1776201 1345.8392085 246.17769369 1346.50521925 246.17776952 1347.19141215 C246.18106795 1377.09797715 246.18320487 1407.00454216 246.18421957 1436.91110733 C246.18463431 1448.67349261 246.18518921 1460.43587789 246.18578148 1472.19826317 C246.18584215 1473.48559668 246.18590282 1474.77293018 246.18596532 1476.0992738 C246.18798209 1517.58304972 246.20222621 1559.06681028 246.22272648 1600.55058085 C246.24330004 1642.33078479 246.25120537 1684.11097098 246.24164872 1725.89117948 C246.24033024 1731.66341424 246.2391522 1737.43564903 246.23805809 1743.20788383 C246.23783824 1744.33941146 246.23761839 1745.47093909 246.23739188 1746.63675543 C246.23427642 1764.56036942 246.24460849 1782.48394948 246.26053364 1800.40755561 C246.27591107 1818.02813517 246.27704399 1835.64866774 246.26298541 1853.26924893 C246.25517012 1863.60186787 246.25830287 1873.93434334 246.27762257 1884.26694797 C246.28936314 1891.13083404 246.28657008 1897.99461535 246.27200793 1904.85849575 C246.26416065 1908.74847059 246.26242222 1912.63816487 246.27862696 1916.52812023 C246.39389107 1946.08009288 246.39389107 1946.08009288 241.76733398 1960.14044189 C241.49237955 1960.98451812 241.21742512 1961.82859435 240.93413873 1962.69824864 C232.38396338 1986.44999884 214.0366007 2004.90748948 191.76733398 2016.14044189 C177.38439076 2022.71696582 163.1933635 2024.59317385 147.56689453 2024.54449463 C145.88799591 2024.55021198 144.20910117 2024.55718145 142.5302124 2024.56529236 C138.01139203 2024.58309011 133.49276725 2024.58208062 128.97392249 2024.57634997 C125.18219759 2024.57323802 121.39050919 2024.57937283 117.59878951 2024.58538872 C108.64297663 2024.59938897 99.68725923 2024.59791084 90.73144531 2024.58648682 C81.53599458 2024.57501528 72.34083586 2024.5890754 63.14542359 2024.61588329 C55.21031336 2024.63813864 47.27529413 2024.64465549 39.34015495 2024.63880688 C34.6186074 2024.63545888 29.89724681 2024.63770687 25.17572594 2024.65505791 C20.73083838 2024.67068243 16.28637856 2024.66640241 11.84150696 2024.64775276 C10.22479132 2024.64410904 8.60804287 2024.64704957 6.9913578 2024.65763855 C-20.94645006 2024.82643452 -44.54053394 2014.31756328 -64.51391602 1994.92559814 C-86.16431461 1971.85761392 -89.85976126 1944.59851054 -89.74230065 1914.30665963 C-89.73147613 1910.3530995 -89.74413104 1906.39959771 -89.75364804 1902.44604373 C-89.76717436 1895.5020158 -89.76592824 1888.55811362 -89.75491387 1881.61408305 C-89.73849962 1871.21863216 -89.74526387 1860.8232827 -89.75644443 1850.42782943 C-89.77482518 1832.70844634 -89.7742538 1814.9891092 -89.76332092 1797.26972198 C-89.75231108 1779.31617552 -89.74999841 1761.3626593 -89.75827026 1743.40911102 C-89.75878695 1742.27462158 -89.75930364 1741.14013214 -89.75983599 1739.97126422 C-89.7619691 1735.35057148 -89.76416394 1730.72987876 -89.76643709 1726.10918608 C-89.78758942 1683.08206229 -89.78903146 1640.05495877 -89.77784729 1597.02783203 C-89.77751611 1595.7531185 -89.77718493 1594.47840496 -89.77684371 1593.16506375 C-89.77651199 1591.88831026 -89.77618027 1590.61155677 -89.7758385 1589.29611379 C-89.76574765 1550.40626905 -89.76313933 1511.51643269 -89.76792908 1472.62658691 C-89.76823899 1470.02280711 -89.76854762 1467.4190273 -89.76885496 1464.81524749 C-89.77009681 1454.35185504 -89.77137148 1443.88846259 -89.77269401 1433.42507014 C-89.77636213 1404.17517502 -89.77865104 1374.92527985 -89.77983856 1345.67538452 C-89.77986604 1345.00952091 -89.77989351 1344.34365729 -89.77992182 1343.65761599 C-89.78167661 1300.53876132 -89.77727453 1257.41990966 -89.76844025 1214.30105591 C-89.76829977 1213.61276549 -89.7681593 1212.92447507 -89.76801457 1212.21532736 C-89.76330925 1189.16140995 -89.75828494 1166.10749261 -89.75322805 1143.05357527 C-89.73794656 1073.33938058 -89.72957182 1003.62519667 -89.75368937 879.12416866 C-89.75874226 856.07605509 -89.76373636 833.02794152 -89.76844025 809.97982788 C-89.76858123 809.29173077 -89.7687222 808.60363366 -89.76886746 807.89468512 C-89.77768958 764.79828944 -89.78161673 721.70189584 -89.77983856 678.60549927 C-89.77981154 677.93985745 -89.77978451 677.27421564 -89.77975667 676.58840286 C-89.77852975 646.69896121 -89.77597446 616.80951974 -89.77219655 586.9200783 C-89.77087997 576.46601459 -89.76962765 566.01195086 -89.76839371 555.55788714 C-89.76808415 552.95716506 -89.76776923 550.35644299 -89.76744892 547.75572092 C-89.76267361 508.87575042 -89.76674215 469.99578936 -89.77684371 431.11582004 C-89.77717489 429.84110651 -89.77750607 428.56639297 -89.77784729 427.25305176 C-89.77817802 425.98068755 -89.77850875 424.70832335 -89.7788495 423.39740265 C-89.78987931 380.49495574 -89.78583022 337.59253314 -89.76472431 294.6900897 C-89.76251488 290.08398408 -89.76036806 285.47787844 -89.75827026 280.87177277 C-89.75774944 279.74134873 -89.75722861 278.61092469 -89.756692 277.44624538 C-89.74879967 259.54034125 -89.75429833 241.63446733 -89.76534629 223.72856592 C-89.77592245 206.12571445 -89.77222223 188.52291402 -89.75328994 170.92006903 C-89.74261206 160.59810034 -89.74284399 150.27627151 -89.75921632 139.95430948 C-89.76899745 133.09757296 -89.76425443 126.24094526 -89.74774891 119.38422188 C-89.73879865 115.49834816 -89.73594704 111.61275277 -89.75101498 107.72689161 C-89.85764792 78.20501382 -89.85764792 78.20501382 -85.23266602 64.14044189 C-84.95772239 63.29632606 -84.68277875 62.45221022 -84.3995035 61.58251512 C-76.08203674 38.47948402 -58.31065481 19.55978973 -36.40625 8.84259033 C-24.81317377 3.45745537 -12.84957901 0.03094798 0 0 Z " fill="#7BE3D7" transform="translate(1208.232666015625,-0.14044189453125)"/>
<path d="M0 0 C1.65214262 -0.0043555 3.30428323 -0.00954142 4.9564209 -0.01548767 C9.41533519 -0.02880071 13.87416432 -0.02946483 18.3330946 -0.02692437 C22.07017318 -0.02584913 25.80723491 -0.03075224 29.54430985 -0.03552979 C38.37004769 -0.04659899 47.19574296 -0.04707738 56.02148438 -0.04101562 C65.09132653 -0.03498143 74.16101334 -0.04727875 83.230829 -0.06858569 C91.04864029 -0.08626829 98.86640243 -0.09219249 106.68423295 -0.08894795 C111.3397814 -0.08714509 115.99521908 -0.08967046 120.65074921 -0.10366249 C125.03396573 -0.11634469 129.41694231 -0.11419979 133.80015564 -0.1012516 C135.39674719 -0.09890847 136.99335617 -0.10153786 138.58992767 -0.10987473 C164.60771482 -0.23579542 186.73124174 7.87682174 206.38378906 25.2746582 C207.42986328 26.17764648 207.42986328 26.17764648 208.49707031 27.09887695 C223.51495231 40.97311263 234.58038882 63.65803132 235.50943002 84.02966104 C235.50973391 84.98115546 235.5100378 85.93264989 235.5103509 86.91297748 C235.51312622 88.02125735 235.51590153 89.12953722 235.51876095 90.27140133 C235.51672461 91.48186938 235.51468827 92.69233743 235.51259023 93.93948632 C235.51525274 95.88735673 235.51525274 95.88735673 235.51796905 97.87457804 C235.52277231 101.4948027 235.52133301 105.11500246 235.51891135 108.73522851 C235.51737123 112.68251107 235.52162423 116.62978807 235.52513811 120.57706878 C235.53051739 127.52714814 235.53215445 134.47722075 235.53138737 141.42730204 C235.53025326 151.83201236 235.53482883 162.23671478 235.54051821 172.64142333 C235.55003683 190.37232127 235.55473849 208.10321764 235.55682755 225.83411789 C235.55895478 243.81001465 235.5632116 261.78590898 235.57007027 279.76180458 C235.57050088 280.89597841 235.57093149 282.03015224 235.57137516 283.19869497 C235.57313347 287.81781337 235.57490312 292.43693176 235.57668818 297.05605015 C235.59829664 353.08024494 235.60916818 409.10444021 235.61816442 465.12863821 C235.62109769 483.29391413 235.62446748 501.45918992 235.62813163 519.6244657 C235.62851906 521.54629288 235.62851906 521.54629288 235.62891433 523.50694485 C235.62996053 528.6901405 235.63100896 533.87333614 235.63206015 539.05653179 C235.6490402 622.8547168 235.66437075 706.65290224 235.67281918 805.03655554 C235.67334364 811.3043395 235.67388095 817.57212346 235.67441765 823.83990742 C235.67459685 825.93307785 235.67477582 828.02624827 235.67495474 830.11941869 C235.67609181 843.41678989 235.67723788 856.71416108 235.67840293 870.01153228 C235.67871024 873.5198237 235.67901618 877.02811513 235.67931884 880.53640655 C235.68503833 946.79248224 235.6942799 1013.04855409 235.71673584 1079.30462646 C235.71697207 1080.0020522 235.7172083 1080.69947794 235.71745168 1081.41803779 C235.72507954 1103.90979532 235.73312837 1126.40155271 235.74123695 1148.89331007 C235.74904458 1170.55065276 235.75676802 1192.20799548 235.76412678 1213.86533833 C235.76447791 1214.8979961 235.76447791 1214.8979961 235.76483614 1215.95151564 C235.77947403 1259.07014805 235.78927493 1302.18877942 235.79400158 1345.30741405 C235.79407517 1345.97342481 235.79414877 1346.63943556 235.79422459 1347.32562846 C235.79752303 1377.23219346 235.79965995 1407.13875846 235.80067464 1437.04532364 C235.80108939 1448.80770892 235.80164429 1460.5700942 235.80223656 1472.33247948 C235.80229723 1473.61981298 235.80235789 1474.90714649 235.8024204 1476.2334901 C235.80443716 1517.71726603 235.81868129 1559.20102659 235.83918156 1600.68479716 C235.85975512 1642.4650011 235.86766045 1684.24518729 235.8581038 1726.02539579 C235.85678532 1731.79763055 235.85560728 1737.56986533 235.85451317 1743.34210014 C235.85429332 1744.47362777 235.85407347 1745.60515539 235.85384696 1746.77097174 C235.8507315 1764.69458573 235.86106357 1782.61816579 235.87698872 1800.54177192 C235.89236615 1818.16235148 235.89349906 1835.78288405 235.87944048 1853.40346523 C235.8716252 1863.73608418 235.87475795 1874.06855965 235.89407764 1884.40116428 C235.90581822 1891.26505035 235.90302516 1898.12883166 235.888463 1904.99271206 C235.88061573 1908.8826869 235.87887729 1912.77238118 235.89508204 1916.66233654 C236.01929327 1948.54853762 230.31207013 1974.54504296 207.57128906 1998.3996582 C191.59979978 2013.81400251 169.64507187 2024.34468536 147.24687195 2024.42182922 C146.55136901 2024.42550591 145.85586608 2024.4291826 145.13928729 2024.4329707 C142.82063375 2024.44393831 140.50202513 2024.44783963 138.18334961 2024.45166016 C136.51548625 2024.45793035 134.84762427 2024.46457764 133.17976379 2024.47157288 C127.71002159 2024.4925606 122.2402793 2024.50297467 116.77050781 2024.51293945 C114.88073017 2024.51698987 112.99095266 2024.52110687 111.10117531 2024.52528954 C102.21486706 2024.54433458 93.32856705 2024.5585635 84.44224232 2024.5669015 C74.22123284 2024.57665254 64.00044114 2024.60291903 53.77950829 2024.6434024 C45.85731704 2024.67369152 37.93518773 2024.68838269 30.01293975 2024.69168252 C25.29236373 2024.69401965 20.57202052 2024.70280328 15.85150719 2024.72814369 C11.40019534 2024.75165261 6.94926579 2024.7555674 2.49790764 2024.74538231 C0.87795988 2024.74489223 -0.74200818 2024.75105377 -2.36189651 2024.76493835 C-28.00212955 2024.97213216 -50.32727096 2016.35060351 -69.61621094 1999.2746582 C-70.66228516 1998.37166992 -70.66228516 1998.37166992 -71.72949219 1997.45043945 C-88.06210649 1982.36159137 -98.0791195 1958.68661593 -98.98106193 1936.7080913 C-99.1623153 1929.28879116 -99.15278397 1921.87095839 -99.12327437 1914.45010262 C-99.11206636 1910.49791206 -99.12434832 1906.54577767 -99.13349178 1902.59359133 C-99.14636145 1895.65198411 -99.14445543 1888.71050415 -99.13278001 1881.76889662 C-99.11537763 1871.37710273 -99.12117332 1860.98540829 -99.13139451 1850.59360942 C-99.14814194 1832.88052327 -99.14594936 1815.16748479 -99.13340759 1797.4543972 C-99.12077018 1779.50730349 -99.11684335 1761.56023929 -99.1235218 1743.61314201 C-99.12393801 1742.47906155 -99.12435422 1741.34498109 -99.12478305 1740.17653455 C-99.12650779 1735.55751185 -99.12829564 1730.93848917 -99.13016323 1726.31946653 C-99.14754841 1683.30834175 -99.14537697 1640.29723876 -99.13082695 1597.28611374 C-99.116823 1555.83577609 -99.10978246 1514.38544828 -99.11253548 1472.93510818 C-99.11269836 1470.33243555 -99.11286039 1467.72976291 -99.11302158 1465.12709027 C-99.11367989 1454.66818229 -99.11438364 1444.20927431 -99.11514692 1433.75036633 C-99.11725861 1404.51316144 -99.11801644 1375.27595657 -99.11773014 1346.0387516 C-99.11772411 1345.37317914 -99.11771808 1344.70760667 -99.11771187 1344.02186535 C-99.11730071 1300.92217515 -99.1109522 1257.82248811 -99.100173 1214.7227993 C-99.10000135 1214.03481708 -99.09982971 1213.34683486 -99.09965286 1212.6380047 C-99.09390046 1189.59435065 -99.0877852 1166.55069669 -99.08164322 1143.50704275 C-99.06307918 1073.82067124 -99.05029444 1004.13430747 -99.06200922 879.6795565 C-99.06242018 876.17685928 -99.06282755 872.67416205 -99.06323491 869.17146483 C-99.06331553 868.47828132 -99.06339615 867.7850978 -99.06347921 867.07090873 C-99.06372336 864.97119989 -99.06396737 862.87149105 -99.06421136 860.7717822 C-99.06429191 860.07918185 -99.06437245 859.38658149 -99.06445543 858.67299324 C-99.06623896 843.32987464 -99.06797662 827.98675604 -99.06962898 812.64363743 C-99.06977883 811.25382764 -99.06992921 809.86401785 -99.07008014 808.47420806 C-99.07475798 765.39513111 -99.07574585 722.31605561 -99.07224369 679.23697853 C-99.07218988 678.57164119 -99.07213607 677.90630384 -99.07208064 677.22080476 C-99.06965206 647.34558477 -99.06617154 617.47036493 -99.06174049 587.59514517 C-99.06019124 577.14618881 -99.05867789 566.69723245 -99.05716566 556.24827609 C-99.05659743 552.35120337 -99.05601594 548.45413065 -99.05543393 544.55705792 C-99.05123135 516.04662866 -99.04903667 487.53620111 -99.05211902 459.02577162 C-99.05225763 457.74068165 -99.05239624 456.45559169 -99.05253905 455.1315596 C-99.05324946 448.66116254 -99.05399566 442.19076548 -99.05475641 435.72036843 C-99.06024328 388.97472927 -99.05613119 342.22910824 -99.03476786 295.48347305 C-99.03270554 290.88010614 -99.0306888 286.27673921 -99.0287075 281.67337227 C-99.02821656 280.54361574 -99.02772561 279.41385921 -99.02721979 278.24986763 C-99.01970598 260.34895968 -99.02222269 242.44806779 -99.02888135 224.5471601 C-99.03521048 206.95257535 -99.03083345 189.35802033 -99.01500304 171.76344126 C-99.00603493 161.44413706 -99.00525544 151.12491063 -99.01654424 140.80560826 C-99.02322031 133.95318474 -99.0190317 127.10082351 -99.00599276 120.24840928 C-98.9989033 116.36338543 -98.99642241 112.47851774 -99.00732465 108.59349917 C-99.01895224 104.41249114 -99.00723897 100.23186203 -98.9934091 96.05086076 C-99.00046319 94.86363186 -99.00751728 93.67640296 -99.01478513 92.45319743 C-98.85049984 67.6632472 -88.93472857 44.71856735 -71.57324219 27.13793945 C-51.58500661 7.5603771 -27.54118895 -0.04831114 0 0 Z " fill="#7BE3D7" transform="translate(640.6162109375,-0.274658203125)"/>
</svg>
