<svg viewBox="0 0 1024 1024" version="1.1" xmlns="http://www.w3.org/2000/svg"><path d="M512 64c-247.456 0-448 200.544-448 448s200.544 448 448 448 448-200.544 448-448S759.456 64 512 64zM512 960c-239.616 0-432-192.384-432-432s192.384-432 432-432 432 192.384 432 432S751.616 960 512 960z" fill="currentColor"/><path d="M728.448 640l-160 160c-12.672 12.672-33.152 12.672-45.824 0s-12.672-33.152 0-45.824l137.152-137.152H416c-17.664 0-32-14.336-32-32s14.336-32 32-32h193.792l-137.152-137.152c-12.672-12.672-12.672-33.152 0-45.824s33.152-12.672 45.824 0l160 160c6.336 6.336 9.792 14.72 9.792 23.04s-3.456 16.704-9.792 23.04c-6.4 6.336-14.72 9.792-23.04 9.792s-16.704-3.456-23.04-9.792z" fill="currentColor"/></svg>