<?xml version="1.0" standalone="no"?><!DOCTYPE svg PUBLIC "-//W3C//DTD SVG 1.1//EN" "http://www.w3.org/Graphics/SVG/1.1/DTD/svg11.dtd"><svg t="1784340847265" class="icon" viewBox="0 0 1024 1024" version="1.1" xmlns="http://www.w3.org/2000/svg" p-id="6906" xmlns:xlink="http://www.w3.org/1999/xlink" width="200" height="200"><path d="M335.36 266.24a61.44 61.44 0 0 0-61.44 61.44v368.64a61.44 61.44 0 0 0 122.88 0v-20.992c0-54.9888 0-82.5344 7.9872-88.6784a17.92 17.92 0 0 1 7.5776-3.6864c9.728-2.4576 32.256 15.36 77.312 51.0976l53.0432 41.984c63.6928 50.3808 95.5392 75.6736 122.1632 76.8a82.0224 82.0224 0 0 0 69.5296-33.792c15.6672-21.504 15.6672-62.1568 15.6672-143.36V448.3072c0-81.1008 0-121.6512-15.6672-143.2576a82.0224 82.0224 0 0 0-69.5296-33.792c-26.624 1.1264-58.4704 26.4192-122.1632 76.8l-53.0432 41.984c-45.056 35.6352-67.584 53.5552-77.4144 51.0976a17.92 17.92 0 0 1-7.4752-3.6864c-7.9872-6.144-7.9872-33.6896-7.9872-88.6784V327.68a61.44 61.44 0 0 0-61.44-61.44z" p-id="6907" fill="currentColor"></path></svg>