<?xml version="1.0" standalone="no"?><!DOCTYPE svg PUBLIC "-//W3C//DTD SVG 1.1//EN" "http://www.w3.org/Graphics/SVG/1.1/DTD/svg11.dtd"><svg t="1784341071966" class="icon" viewBox="0 0 1024 1024" version="1.1" xmlns="http://www.w3.org/2000/svg" p-id="12303" xmlns:xlink="http://www.w3.org/1999/xlink" width="200" height="200"><path d="M331.818667 384H213.333333a42.666667 42.666667 0 0 0-42.666666 42.666667v192a42.666667 42.666667 0 0 0 42.666666 42.666666h118.485334L490.666667 756.650667V288.682667L331.818667 384zM213.333333 341.333333h106.666667l148.714667-89.237333c28.437333-17.066667 64.618667 3.413333 64.618666 36.586667v467.968c0 33.152-36.181333 53.632-64.618666 36.586666L320 704h-106.666667a85.333333 85.333333 0 0 1-85.333333-85.333333v-192a85.333333 85.333333 0 0 1 85.333333-85.333334zM616.192 406.464a21.333333 21.333333 0 0 1 30.186667 0l176.469333 176.490667a21.333333 21.333333 0 0 1-30.165333 30.165333l-176.469334-176.469333a21.333333 21.333333 0 0 1 0-30.186667z" fill="currentColor" p-id="12304"></path><path d="M616.192 613.12a21.333333 21.333333 0 0 1 0-30.165333l176.490667-176.469334a21.333333 21.333333 0 1 1 30.165333 30.165334l-176.469333 176.469333a21.333333 21.333333 0 0 1-30.186667 0z" fill="currentColor" p-id="12305"></path></svg>