<?xml version="1.0" encoding="UTF-8"?>
<svg version="1.1" xmlns="http://www.w3.org/2000/svg" width="1661" height="1662">
<path d="M0 0 C2.88887246 1.76614176 5.65418186 3.65224063 8.42578125 5.59765625 C9.00859863 6.00483887 9.59141602 6.41202148 10.19189453 6.83154297 C13.66867783 9.26322977 17.13213376 11.7131589 20.58984375 14.171875 C25.88563963 17.93248264 31.21648352 21.64194566 36.55078125 25.34765625 C37.51959229 26.02094971 38.48840332 26.69424316 39.48657227 27.38793945 C41.47122257 28.76695373 43.45600541 30.14577729 45.44091797 31.52441406 C58.26684746 40.43311628 71.08531327 49.35211199 83.87451172 58.31347656 C93.0683743 64.75299827 102.28557323 71.1589005 111.50244141 77.56542969 C117.26722265 81.57294924 123.03017088 85.58310423 128.79345703 89.59277344 C133.62211073 92.95205114 138.45121743 96.31067384 143.28125 99.66796875 C153.15712908 106.53355314 163.02414135 113.41134267 172.87451172 120.31347656 C182.0683743 126.75299827 191.28557323 133.1589005 200.50244141 139.56542969 C205.31108287 142.9082668 210.11837017 146.25305006 214.92578125 149.59765625 C216.84244128 150.93099912 218.75910795 152.26433245 220.67578125 153.59765625 C224.50911458 156.26432292 228.34244792 158.93098958 232.17578125 161.59765625 C233.12477295 162.25781738 234.07376465 162.91797852 235.05151367 163.59814453 C236.96576548 164.9298121 238.87999079 166.26151775 240.79418945 167.59326172 C245.62258557 170.952396 250.45145832 174.31084128 255.28125 177.66796875 C265.15712908 184.53355314 275.02414135 191.41134267 284.87451172 198.31347656 C294.0683743 204.75299827 303.28557323 211.1589005 312.50244141 217.56542969 C318.26722265 221.57294924 324.03017088 225.58310423 329.79345703 229.59277344 C334.62211073 232.95205114 339.45121743 236.31067384 344.28125 239.66796875 C354.15712908 246.53355314 364.02414135 253.41134267 373.87451172 260.31347656 C383.0683743 266.75299827 392.28557323 273.1589005 401.50244141 279.56542969 C407.26722265 283.57294924 413.03017088 287.58310423 418.79345703 291.59277344 C423.62211073 294.95205114 428.45121743 298.31067384 433.28125 301.66796875 C443.15712908 308.53355314 453.02414135 315.41134267 462.87451172 322.31347656 C472.0683743 328.75299827 481.28557323 335.1589005 490.50244141 341.56542969 C495.31108287 344.9082668 500.11837017 348.25305006 504.92578125 351.59765625 C506.84244128 352.93099912 508.75910795 354.26433245 510.67578125 355.59765625 C514.50911458 358.26432292 518.34244792 360.93098958 522.17578125 363.59765625 C523.12477295 364.25781738 524.07376465 364.91797852 525.05151367 365.59814453 C526.96576548 366.9298121 528.87999079 368.26151775 530.79418945 369.59326172 C535.62258557 372.952396 540.45145832 376.31084128 545.28125 379.66796875 C555.15712908 386.53355314 565.02414135 393.41134267 574.87451172 400.31347656 C584.0683743 406.75299827 593.28557323 413.1589005 602.50244141 419.56542969 C608.26722265 423.57294924 614.03017088 427.58310423 619.79345703 431.59277344 C624.62211073 434.95205114 629.45121743 438.31067384 634.28125 441.66796875 C644.15712908 448.53355314 654.02414135 455.41134267 663.87451172 462.31347656 C673.0683743 468.75299827 682.28557323 475.1589005 691.50244141 481.56542969 C696.31108287 484.9082668 701.11837017 488.25305006 705.92578125 491.59765625 C707.84244128 492.93099912 709.75910795 494.26433245 711.67578125 495.59765625 C715.50911458 498.26432292 719.34244792 500.93098958 723.17578125 503.59765625 C724.12477295 504.25781738 725.07376465 504.91797852 726.05151367 505.59814453 C727.96576548 506.9298121 729.87999079 508.26151775 731.79418945 509.59326172 C736.62258557 512.952396 741.45145832 516.31084128 746.28125 519.66796875 C756.15712908 526.53355314 766.02414135 533.41134267 775.87451172 540.31347656 C785.0683743 546.75299827 794.28557323 553.1589005 803.50244141 559.56542969 C809.26722265 563.57294924 815.03017088 567.58310423 820.79345703 571.59277344 C825.62211073 574.95205114 830.45121743 578.31067384 835.28125 581.66796875 C845.15712908 588.53355314 855.02414135 595.41134267 864.87451172 602.31347656 C874.0683743 608.75299827 883.28557323 615.1589005 892.50244141 621.56542969 C898.26722265 625.57294924 904.03017088 629.58310423 909.79345703 633.59277344 C914.62211073 636.95205114 919.45121743 640.31067384 924.28125 643.66796875 C934.15712908 650.53355314 944.02414135 657.41134267 953.87451172 664.31347656 C963.0683743 670.75299827 972.28557323 677.1589005 981.50244141 683.56542969 C986.31108287 686.9082668 991.11837017 690.25305006 995.92578125 693.59765625 C997.84244128 694.93099912 999.75910795 696.26433245 1001.67578125 697.59765625 C1005.50911458 700.26432292 1009.34244792 702.93098958 1013.17578125 705.59765625 C1014.12477295 706.25781738 1015.07376465 706.91797852 1016.05151367 707.59814453 C1017.96576548 708.9298121 1019.87999079 710.26151775 1021.79418945 711.59326172 C1026.62258557 714.952396 1031.45145832 718.31084128 1036.28125 721.66796875 C1046.15712908 728.53355314 1056.02414135 735.41134267 1065.87451172 742.31347656 C1072.15414031 746.71182429 1078.44397315 751.09534513 1084.73828125 755.47265625 C1085.69210693 756.13604004 1086.64593262 756.79942383 1087.62866211 757.48291016 C1092.5855447 760.92961945 1097.54399535 764.37405629 1102.50390625 767.81640625 C1107.30920931 771.15213578 1112.10977414 774.49457589 1116.90673828 777.84228516 C1119.17923508 779.4258529 1121.45642866 781.00241491 1123.734375 782.578125 C1135.34417789 790.65799037 1145.19658001 799.31284436 1148.953125 813.57421875 C1151.08329218 827.20024684 1149.92343214 840.01780156 1142.30078125 851.78515625 C1134.18625111 862.48003907 1123.13257464 869.39370618 1112.13085938 876.77050781 C1107.38329387 879.97725693 1102.68733343 883.25791099 1097.98828125 886.53515625 C1096.53192261 887.54944702 1096.53192261 887.54944702 1095.04614258 888.58422852 C1088.01572364 893.4827258 1080.99551299 898.39574467 1073.97802734 903.31274414 C1064.78391649 909.75261997 1055.5663229 916.1586686 1046.34912109 922.56542969 C1041.54047964 925.90826679 1036.7331756 929.25302603 1031.92578125 932.59765625 C1026.14130276 936.62206952 1020.35652328 940.64604639 1014.5703125 944.66796875 C1005.51281712 950.96462329 996.459887 957.26747727 987.42578125 963.59765625 C977.41686908 970.61088005 967.3844132 977.59002431 957.34912109 984.56542969 C952.54047964 987.90826679 947.7331756 991.25302603 942.92578125 994.59765625 C937.14130276 998.62206952 931.35652328 1002.64604639 925.5703125 1006.66796875 C916.51281712 1012.96462329 907.459887 1019.26747727 898.42578125 1025.59765625 C888.41686908 1032.61088005 878.3844132 1039.59002431 868.34912109 1046.56542969 C863.54047963 1049.9082668 858.73319233 1053.25305006 853.92578125 1056.59765625 C852.00912122 1057.93099912 850.09245455 1059.26433245 848.17578125 1060.59765625 C847.22703125 1061.25765625 846.27828125 1061.91765625 845.30078125 1062.59765625 C836.67578123 1068.59765626 836.67578123 1068.59765626 833.80004883 1070.59814453 C831.88579702 1071.9298121 829.97157171 1073.26151775 828.05737305 1074.59326172 C823.22897693 1077.952396 818.40010418 1081.31084128 813.5703125 1084.66796875 C804.51281712 1090.96462329 795.459887 1097.26747727 786.42578125 1103.59765625 C776.41686908 1110.61088005 766.3844132 1117.59002431 756.34912109 1124.56542969 C751.54047964 1127.90826679 746.7331756 1131.25302603 741.92578125 1134.59765625 C736.14130276 1138.62206952 730.35652328 1142.64604639 724.5703125 1146.66796875 C715.51281712 1152.96462329 706.459887 1159.26747727 697.42578125 1165.59765625 C687.41686908 1172.61088005 677.3844132 1179.59002431 667.34912109 1186.56542969 C662.54047963 1189.9082668 657.73319233 1193.25305006 652.92578125 1196.59765625 C651.00912122 1197.93099912 649.09245455 1199.26433245 647.17578125 1200.59765625 C646.22703125 1201.25765625 645.27828125 1201.91765625 644.30078125 1202.59765625 C635.67578128 1208.59765623 635.67578128 1208.59765623 632.80004883 1210.59814453 C630.88579702 1211.9298121 628.97157171 1213.26151775 627.05737305 1214.59326172 C622.22897693 1217.952396 617.40010418 1221.31084128 612.5703125 1224.66796875 C603.51281712 1230.96462329 594.459887 1237.26747727 585.42578125 1243.59765625 C575.41686908 1250.61088005 565.3844132 1257.59002431 555.34912109 1264.56542969 C550.54047964 1267.90826679 545.7331756 1271.25302603 540.92578125 1274.59765625 C535.14130276 1278.62206952 529.35652328 1282.64604639 523.5703125 1286.66796875 C514.51281712 1292.96462329 505.459887 1299.26747727 496.42578125 1305.59765625 C486.41686908 1312.61088005 476.3844132 1319.59002431 466.34912109 1326.56542969 C461.54047964 1329.90826679 456.7331756 1333.25302603 451.92578125 1336.59765625 C446.14130276 1340.62206952 440.35652328 1344.64604639 434.5703125 1348.66796875 C425.51281712 1354.96462329 416.459887 1361.26747727 407.42578125 1367.59765625 C397.41686908 1374.61088005 387.3844132 1381.59002431 377.34912109 1388.56542969 C372.54047963 1391.9082668 367.73319233 1395.25305006 362.92578125 1398.59765625 C361.00912122 1399.93099912 359.09245455 1401.26433245 357.17578125 1402.59765625 C356.22703125 1403.25765625 355.27828125 1403.91765625 354.30078125 1404.59765625 C345.67578127 1410.59765624 345.67578127 1410.59765624 342.80004883 1412.59814453 C340.88579702 1413.9298121 338.97157171 1415.26151775 337.05737305 1416.59326172 C332.22897693 1419.952396 327.40010418 1423.31084128 322.5703125 1426.66796875 C313.51281712 1432.96462329 304.459887 1439.26747727 295.42578125 1445.59765625 C285.41686908 1452.61088005 275.3844132 1459.59002431 265.34912109 1466.56542969 C260.54047964 1469.90826679 255.7331756 1473.25302603 250.92578125 1476.59765625 C245.14130276 1480.62206952 239.35652328 1484.64604639 233.5703125 1488.66796875 C224.51281712 1494.96462329 215.459887 1501.26747727 206.42578125 1507.59765625 C196.41686908 1514.61088005 186.3844132 1521.59002431 176.34912109 1528.56542969 C171.54047963 1531.9082668 166.73319233 1535.25305006 161.92578125 1538.59765625 C160.00912122 1539.93099912 158.09245455 1541.26433245 156.17578125 1542.59765625 C155.22703125 1543.25765625 154.27828125 1543.91765625 153.30078125 1544.59765625 C144.67578124 1550.59765625 144.67578124 1550.59765625 141.80004883 1552.59814453 C139.88579702 1553.9298121 137.97157171 1555.26151775 136.05737305 1556.59326172 C131.22897693 1559.952396 126.40010418 1563.31084128 121.5703125 1566.66796875 C112.51281712 1572.96462329 103.459887 1579.26747727 94.42578125 1585.59765625 C84.41686908 1592.61088005 74.3844132 1599.59002431 64.34912109 1606.56542969 C59.54047962 1609.9082668 54.73320055 1613.25306187 49.92578125 1616.59765625 C48.02213871 1617.92187973 46.11849287 1619.24609847 44.21484375 1620.5703125 C39.23936383 1624.03147912 34.26436823 1627.49334102 29.28979492 1630.95581055 C27.31922688 1632.32666148 25.3480492 1633.69663655 23.3762207 1635.06567383 C19.38713617 1637.83570797 15.40038949 1640.60733887 11.4453125 1643.42578125 C-3.00297481 1653.68887862 -15.77213226 1658.41968188 -33.57421875 1656.59765625 C-45.61882728 1653.83331987 -55.39272552 1646.55503839 -62.57421875 1636.59765625 C-68.10578048 1627.26589695 -69.87462836 1619.2816813 -69.82721841 1608.55977231 C-69.83027151 1607.44956589 -69.8333246 1606.33935947 -69.83647022 1605.19551043 C-69.84430027 1601.45343943 -69.83782596 1597.71152858 -69.83148766 1593.96945667 C-69.83306891 1591.2567066 -69.83766405 1588.54396347 -69.84211212 1585.83121678 C-69.85022211 1579.90325313 -69.85087029 1573.97532455 -69.84670024 1568.04735736 C-69.84049167 1559.17289041 -69.84577156 1550.29845571 -69.85329765 1541.42399111 C-69.86577932 1526.30017929 -69.86870778 1511.17637891 -69.86646271 1496.05256271 C-69.86421554 1480.72168167 -69.86627591 1465.39081035 -69.87360764 1450.0599308 C-69.87429659 1448.6085591 -69.87429659 1448.6085591 -69.87499947 1447.12786676 C-69.8768827 1443.18718199 -69.87879407 1439.24649723 -69.88074185 1435.30581249 C-69.90104309 1394.1728488 -69.90715428 1353.03989056 -69.90832607 1311.90692244 C-69.90845557 1307.4778412 -69.90859144 1303.04875997 -69.90873289 1298.61967874 C-69.9087669 1297.52062603 -69.90880091 1296.42157333 -69.90883595 1295.28921601 C-69.90965246 1270.94679346 -69.914031 1246.60437196 -69.91904458 1222.26194996 C-69.92110126 1212.24221598 -69.92308131 1202.22248199 -69.92507708 1192.202748 C-69.92540885 1190.54216305 -69.92540885 1190.54216305 -69.92574732 1188.84803094 C-69.93839772 1125.39735904 -69.94664531 1061.94668782 -69.94573021 998.4960146 C-69.94569865 996.12084555 -69.94566718 993.7456765 -69.94563579 991.37050745 C-69.94548902 980.64652807 -69.94531268 969.9225487 -69.94512802 959.19856932 C-69.94504578 954.41635655 -69.94496548 949.63414378 -69.9448854 944.85193101 C-69.94484461 942.45834574 -69.94480257 940.06476048 -69.94475928 937.67117521 C-69.94339865 861.97584385 -69.95803486 786.2805312 -69.98583984 710.58520508 C-69.99284171 691.51314201 -69.99978055 672.44107891 -70.00636864 653.36901569 C-70.00677439 652.19472253 -70.00718013 651.02042937 -70.00759818 649.81055157 C-70.02002523 613.62643603 -70.02755873 577.44232204 -70.03008461 541.25820446 C-70.03016451 540.12241408 -70.03024441 538.9866237 -70.03032674 537.81641542 C-70.03203317 512.88484184 -70.03255572 487.95326836 -70.03198598 463.02169473 C-70.03179301 454.10103539 -70.03168893 445.18037605 -70.03162852 436.25971671 C-70.0316127 434.04042486 -70.03159229 431.82113302 -70.03156728 429.60184117 C-70.03121442 394.21844329 -70.04261907 358.83506141 -70.05987491 323.45166812 C-70.07716351 287.82001012 -70.08156698 252.18837429 -70.06835227 216.55671386 C-70.06652761 211.63527162 -70.06484107 206.71382933 -70.06323624 201.79238701 C-70.06291606 200.8276313 -70.06259589 199.8628756 -70.06226601 198.86888487 C-70.05755616 183.57999935 -70.066284 168.29115211 -70.08057861 153.00227379 C-70.09434731 137.97613748 -70.09388716 122.95005784 -70.07819434 107.9239228 C-70.06941691 99.10994107 -70.07160943 90.29612603 -70.08992791 81.48215803 C-70.10099926 75.63029142 -70.09759296 69.77854938 -70.08236234 63.92669239 C-70.07413154 60.60812604 -70.07430476 57.2901558 -70.08786372 53.97156728 C-70.1014771 50.40150215 -70.09044434 46.83231717 -70.07331407 43.26228601 C-70.08311331 42.24632527 -70.09291255 41.23036453 -70.10300873 40.18361711 C-69.97409292 27.29338077 -65.28407661 16.69414161 -56.47265625 7.375 C-41.07195516 -7.1821998 -18.65369182 -10.1618746 0 0 Z " fill="#91ECE8" transform="translate(357.57421875,5.40234375)"/>
<path d="M0 0 C0.66 0 1.32 0 2 0 C2 0.66 2 1.32 2 2 C1.34 2 0.68 2 0 2 C0 1.34 0 0.68 0 0 Z " fill="#000000" transform="translate(1652,842)"/>
<path d="" fill="#000000" transform="translate(0,0)"/>
</svg>
